<?xml version="1.0" standalone="no"?>
<!DOCTYPE svg PUBLIC "-//W3C//DTD SVG 20010904//EN"
 "http://www.w3.org/TR/2001/REC-SVG-20010904/DTD/svg10.dtd">
<svg version="1.0" xmlns="http://www.w3.org/2000/svg"
 width="587.000000pt" height="587.000000pt" viewBox="0 0 587.000000 587.000000"
 preserveAspectRatio="xMidYMid meet">
<metadata>
Created by potrace 1.11, written by Peter Selinger 2001-2013
</metadata>
<g transform="translate(0.000000,587.000000) scale(0.100000,-0.100000)"
fill="#000000" stroke="none">
<path d="M3871 5779 c-70 -13 -139 -38 -226 -81 -237 -118 -473 -341 -702
-666 -228 -325 -422 -716 -565 -1142 -46 -136 -112 -364 -122 -420 -2 -14 -13
-63 -24 -110 -11 -47 -23 -105 -27 -130 -9 -55 -13 -77 -20 -110 -3 -14 -7
-41 -9 -60 -8 -66 -17 -145 -21 -175 -24 -174 -25 -670 -1 -790 2 -11 7 -45
10 -75 6 -54 10 -79 21 -130 3 -14 8 -41 11 -60 8 -53 41 -178 63 -242 11 -32
17 -58 13 -59 -4 0 -16 -2 -27 -4 -31 -6 -95 -14 -150 -20 -27 -3 -57 -8 -65
-10 -8 -2 -37 -7 -65 -10 -27 -4 -185 -29 -350 -56 -356 -59 -341 -56 -363
-63 -9 -3 -33 -7 -52 -10 -19 -3 -50 -10 -68 -15 -18 -5 -36 -10 -40 -10 -16
0 -114 -25 -247 -62 -361 -100 -618 -221 -750 -352 -86 -87 -109 -159 -80
-247 32 -95 183 -203 420 -299 44 -17 89 -36 100 -41 83 -37 375 -113 570
-149 102 -18 135 -23 238 -36 20 -3 52 -7 70 -9 34 -5 131 -14 212 -21 342
-29 1102 -24 1465 10 30 2 89 7 130 10 41 4 95 8 120 11 25 2 70 6 100 9 73 7
135 13 179 19 20 3 61 8 91 11 30 4 66 8 80 10 14 2 45 7 70 10 420 57 845
195 1102 358 37 23 77 51 90 62 13 11 41 33 63 50 59 43 204 190 267 270 151
191 276 429 354 675 24 77 69 258 79 320 3 19 8 47 10 61 8 43 15 101 20 154
3 28 8 77 11 110 14 153 4 542 -21 755 -3 25 -7 63 -10 85 -10 86 -26 195 -45
290 -10 55 -22 116 -25 135 -25 147 -174 647 -231 775 -10 22 -18 42 -19 45
-10 34 -101 231 -150 325 -320 611 -730 997 -1159 1092 -81 18 -260 24 -325
12z m274 -265 c84 -17 135 -34 220 -74 182 -83 357 -230 516 -430 33 -41 64
-80 69 -86 25 -32 140 -214 140 -223 0 -5 4 -11 9 -13 14 -5 186 -362 229
-478 86 -228 170 -513 207 -705 5 -22 9 -44 10 -50 8 -31 45 -269 50 -315 4
-30 8 -66 10 -80 27 -187 27 -796 0 -900 -2 -8 -6 -33 -10 -55 -53 -358 -202
-712 -406 -961 -100 -122 -307 -309 -369 -331 -8 -4 -22 -12 -30 -19 -16 -13
-104 -58 -180 -92 -83 -37 -226 -81 -315 -96 -59 -10 -102 -17 -141 -21 -53
-6 -307 -7 -325 -1 -8 3 -38 7 -68 11 -257 28 -546 150 -741 313 -93 79 -109
94 -185 184 -97 115 -146 188 -214 322 -91 176 -154 366 -194 586 -20 106 -25
141 -33 227 -3 37 -7 86 -10 108 -4 51 -4 362 1 437 6 93 15 204 19 224 2 11
7 44 11 74 43 335 181 819 331 1160 65 147 212 432 227 438 4 2 7 8 7 13 0 8
142 227 170 263 180 226 308 352 458 450 87 58 187 101 274 120 61 13 200 13
263 0z"/>
<path d="M3425 4507 c-132 -139 -216 -258 -311 -441 -63 -124 -150 -363 -174
-478 -13 -67 0 -132 30 -148 27 -15 70 41 134 175 56 116 61 128 124 270 82
186 147 311 218 417 85 125 108 187 90 233 -20 48 -44 42 -111 -28z"/>
<path d="M2835 3129 c-62 -138 -78 -348 -40 -538 20 -104 52 -191 70 -191 21
0 33 49 65 275 17 116 37 230 44 255 19 66 14 150 -12 192 -18 29 -72 68 -95
68 -2 0 -17 -28 -32 -61z"/>
</g>
</svg>
