<?xml version="1.0" encoding="UTF-8" standalone="no"?>
<svg
   xmlns:dc="http://purl.org/dc/elements/1.1/"
   xmlns:cc="http://creativecommons.org/ns#"
   xmlns:rdf="http://www.w3.org/1999/02/22-rdf-syntax-ns#"
   xmlns:svg="http://www.w3.org/2000/svg"
   xmlns="http://www.w3.org/2000/svg"
   xml:space="preserve"
   viewBox="0 0 917.848 917.848"
   height="917.84802"
   width="917.84802"
   y="0px"
   x="0px"
   id="Capa_1"
   version="1.1"><metadata
     id="metadata41"><rdf:RDF><cc:Work
         rdf:about=""><dc:format>image/svg+xml</dc:format><dc:type
           rdf:resource="http://purl.org/dc/dcmitype/StillImage" /><dc:title></dc:title></cc:Work></rdf:RDF></metadata><defs
     id="defs39" /><path
     d="m 275.22,564.726 c -47.275,25.35 -90.923,48.464 -122.131,94.54 -27.799,41.041 -43.044,89.913 -43.044,139.514 l 0,99.068 c 0,11.046 8.954,20 20,20 l 328.879,0 328.879,0 c 11.046,0 20,-8.954 20,-20 l 0,-99.068 c 0,-49.601 -15.245,-98.473 -43.044,-139.514 C 733.551,613.19 689.903,590.076 642.628,564.726 612.183,548.401 583.881,524.612 570.189,493.578 657.719,451.932 718.228,362.689 718.228,259.305 718.228,116.094 602.134,0 458.924,0 315.714,0 199.62,116.094 199.62,259.304 c 0,103.384 60.509,192.627 148.04,234.273 -13.693,31.034 -41.995,54.823 -72.44,71.149 z"
     id="path5" /><g
     id="g7" /><g
     id="g9" /><g
     id="g11" /><g
     id="g13" /><g
     id="g15" /><g
     id="g17" /><g
     id="g19" /><g
     id="g21" /><g
     id="g23" /><g
     id="g25" /><g
     id="g27" /><g
     id="g29" /><g
     id="g31" /><g
     id="g33" /><g
     id="g35" /></svg>